<svg width="315" height="314" viewBox="0 0 315 314" fill="none" xmlns="http://www.w3.org/2000/svg">
<path d="M146.713 9.66699C149.268 -1.88212 165.732 -1.88212 168.287 9.66699C170.89 21.434 186.566 23.9169 192.678 13.53C198.676 3.33567 214.335 8.42358 213.196 20.1968C212.035 32.1924 226.177 39.3978 235.199 31.408C244.054 23.5662 257.375 33.244 252.654 44.089C247.842 55.1387 259.065 66.3612 270.115 61.5507C280.96 56.8291 290.638 70.1492 282.796 79.0052C274.806 88.0266 282.011 102.168 294.007 101.008C305.781 99.8679 310.869 115.527 300.674 121.526C290.287 127.638 292.769 143.314 304.537 145.917C316.086 148.471 316.086 164.936 304.537 167.491C292.769 170.093 290.287 185.77 300.674 191.882C310.869 197.88 305.781 213.539 294.007 212.4C282.011 211.239 274.806 225.381 282.796 234.403C290.638 243.258 280.96 256.578 270.115 251.857C259.065 247.046 247.842 258.269 252.654 269.319C257.375 280.163 244.054 289.842 235.199 282C226.177 274.009 212.035 281.216 213.196 293.21C214.335 304.984 198.676 310.072 192.678 299.878C186.566 289.491 170.89 291.974 168.287 303.74C165.732 315.29 149.268 315.29 146.713 303.74C144.11 291.974 128.434 289.491 122.322 299.878C116.324 310.072 100.665 304.984 101.804 293.21C102.965 281.216 88.8235 274.009 79.801 282C70.9461 289.842 57.6253 280.163 62.347 269.319C67.1581 258.269 55.9349 247.046 44.8852 251.857C34.0403 256.578 24.3624 243.258 32.2042 234.403C40.1941 225.381 32.9886 211.239 20.9931 212.4C9.21981 213.539 4.13191 197.88 14.3263 191.882C24.7131 185.77 22.2303 170.093 10.4632 167.491C-1.08589 164.936 -1.08589 148.471 10.4632 145.917C22.2303 143.314 24.7131 127.638 14.3263 121.526C4.13191 115.527 9.21981 99.8679 20.9931 101.008C32.9886 102.168 40.1941 88.0266 32.2042 79.0052C24.3624 70.1492 34.0403 56.8291 44.8852 61.5507C55.9349 66.3612 67.1581 55.1387 62.347 44.089C57.6253 33.244 70.9461 23.5662 79.801 31.408C88.8235 39.3978 102.965 32.1924 101.804 20.1968C100.665 8.42358 116.324 3.33567 122.322 13.53C128.434 23.9169 144.11 21.434 146.713 9.66699Z" stroke="#40464F" stroke-width="2"/>
</svg>
