<svg width="253" height="254" viewBox="0 0 253 254" fill="none" xmlns="http://www.w3.org/2000/svg">
<path d="M124.366 3.36908C124.565 0.730369 128.435 0.730369 128.634 3.36908C129.017 8.47074 136.355 8.85531 137.27 3.8217C137.743 1.21819 141.592 1.62286 141.513 4.26767C141.362 9.38144 148.621 10.531 150.056 5.62066C150.799 3.08098 154.585 3.88554 154.229 6.50781C153.544 11.5776 160.643 13.4797 162.583 8.74629C163.587 6.29809 167.268 7.49388 166.641 10.0648C165.43 15.0351 172.291 17.6688 174.716 13.1642C175.97 10.8343 179.506 12.4085 178.614 14.8997C176.889 19.7161 183.437 23.0525 186.319 18.8262C187.81 16.6402 191.162 18.5752 190.015 20.9595C187.796 25.5693 193.96 29.5719 197.268 25.67C198.98 23.6519 202.111 25.9265 200.72 28.1779C198.032 32.5305 203.743 37.155 207.442 33.6208C209.355 31.7926 212.23 34.3821 210.613 36.4756C207.484 40.5233 212.68 45.7202 216.728 42.5916C218.821 40.973 221.411 43.8495 219.583 45.7623C216.048 49.4604 220.673 55.1723 225.026 52.4835C227.278 51.0935 229.553 54.2242 227.534 55.935C223.632 59.2445 227.634 65.4072 232.245 63.189C234.628 62.0411 236.563 65.3928 234.377 66.8838C230.151 69.7669 233.488 76.3149 238.304 74.5896C240.795 73.6981 242.37 77.233 240.039 78.4875C235.535 80.9133 238.169 87.7743 243.139 86.5619C245.71 85.9358 246.906 89.6161 244.458 90.6197C239.724 92.5614 241.626 99.66 246.696 98.9739C249.318 98.6197 250.123 102.406 247.583 103.148C242.673 104.584 243.822 111.842 248.937 111.69C251.581 111.611 251.986 115.46 249.382 115.933C244.348 116.848 244.733 124.187 249.835 124.57C252.474 124.769 252.474 128.639 249.835 128.837C244.733 129.221 244.348 136.559 249.382 137.474C251.986 137.947 251.581 141.796 248.937 141.717C243.822 141.565 242.673 148.824 247.583 150.26C250.123 151.002 249.318 154.788 246.696 154.434C241.626 153.747 239.724 160.846 244.458 162.788C246.906 163.791 245.71 167.472 243.139 166.846C238.169 165.633 235.535 172.494 240.039 174.92C242.37 176.174 240.795 179.709 238.304 178.818C233.488 177.093 230.151 183.641 234.377 186.524C236.563 188.015 234.628 191.366 232.245 190.218C227.634 188 223.632 194.163 227.534 197.472C229.553 199.183 227.278 202.315 225.026 200.924C220.673 198.236 216.048 203.947 219.583 207.645C221.411 209.558 218.821 212.434 216.728 210.816C212.68 207.687 207.484 212.884 210.613 216.932C212.23 219.026 209.355 221.615 207.442 219.787C203.743 216.252 198.032 220.877 200.72 225.229C202.111 227.481 198.98 229.756 197.268 227.737C193.96 223.836 187.796 227.838 190.015 232.448C191.162 234.833 187.81 236.768 186.319 234.582C183.437 230.355 176.889 233.691 178.614 238.508C179.506 241 175.97 242.573 174.716 240.244C172.291 235.739 165.43 238.373 166.641 243.343C167.268 245.913 163.587 247.109 162.583 244.661C160.643 239.928 153.544 241.83 154.229 246.899C154.585 249.523 150.799 250.326 150.056 247.787C148.621 242.877 141.362 244.026 141.513 249.14C141.592 251.785 137.743 252.189 137.27 249.586C136.355 244.552 129.017 244.937 128.634 250.039C128.435 252.677 124.565 252.677 124.366 250.039C123.983 244.937 116.645 244.552 115.73 249.586C115.257 252.189 111.408 251.785 111.487 249.14C111.638 244.026 104.379 242.877 102.944 247.787C102.201 250.326 98.4154 249.523 98.7707 246.899C99.4557 241.83 92.3571 239.928 90.4165 244.661C89.4129 247.109 85.7315 245.913 86.3588 243.343C87.57 238.373 80.709 235.739 78.2843 240.244C77.0298 242.573 73.4938 241 74.3864 238.508C76.1106 233.691 69.5626 230.355 66.6806 234.582C65.1896 236.768 61.8379 234.833 62.9848 232.448C65.204 227.838 59.0402 223.836 55.7319 227.737C54.0199 229.756 50.8892 227.481 52.2803 225.229C54.9681 220.877 49.2572 216.252 45.5581 219.787C43.6452 221.615 40.7698 219.026 42.3873 216.932C45.5159 212.884 40.3202 207.687 36.2724 210.816C34.1782 212.434 31.5887 209.558 33.417 207.645C36.9518 203.947 32.3267 198.235 27.974 200.924C25.7227 202.315 23.448 199.183 25.4661 197.472C29.368 194.163 25.3654 188 20.7557 190.218C18.3713 191.366 16.4364 188.015 18.6223 186.524C22.8486 183.641 19.5123 177.093 14.6958 178.818C12.2046 179.709 10.6305 176.174 12.9603 174.92C17.465 172.494 14.8312 165.633 9.86092 166.846C7.29004 167.472 6.09425 163.791 8.54244 162.788C13.2759 160.846 11.3738 153.747 6.30397 154.434C3.68169 154.788 2.87713 151.002 5.41681 150.26C10.3272 148.824 9.17759 141.565 4.06382 141.717C1.41901 141.796 1.01434 137.947 3.61785 137.474C8.65147 136.559 8.2669 129.221 3.16523 128.837C0.52663 128.639 0.52663 124.769 3.16523 124.57C8.2669 124.187 8.65147 116.848 3.61785 115.933C1.01434 115.46 1.41901 111.611 4.06382 111.69C9.17759 111.842 10.3272 104.584 5.41681 103.148C2.87713 102.406 3.68169 98.6197 6.30397 98.9739C11.3738 99.66 13.2759 92.5614 8.54244 90.6197C6.09425 89.6161 7.29004 85.9358 9.86092 86.5619C14.8314 87.7743 17.465 80.9133 12.9603 78.4875C10.6305 77.233 12.2046 73.6981 14.6958 74.5896C19.5123 76.3149 22.8487 69.7669 18.6223 66.8838C16.4364 65.3928 18.3713 62.0411 20.7557 63.189C25.3655 65.4072 29.368 59.2445 25.4661 55.935C23.448 54.2242 25.7227 51.0935 27.974 52.4835C32.3267 55.1723 36.9518 49.4604 33.4169 45.7623C31.5887 43.8495 34.1782 40.973 36.2724 42.5916C40.3202 45.7202 45.5159 40.5233 42.3873 36.4756C40.7698 34.3821 43.6452 31.7926 45.5581 33.6207C49.2572 37.155 54.9681 32.5305 52.2803 28.1779C50.8892 25.9265 54.0199 23.6519 55.7319 25.67C59.0402 29.5719 65.204 25.5694 62.9848 20.9595C61.8379 18.5752 65.1896 16.6401 66.6806 18.8262C69.5626 23.0525 76.1106 19.7161 74.3864 14.8997C73.4938 12.4084 77.0298 10.8343 78.2843 13.1642C80.709 17.6688 87.57 15.0352 86.3588 10.0648C85.7315 7.49388 89.4129 6.29809 90.4165 8.74629C92.3571 13.4797 99.4557 11.5776 98.7707 6.50781C98.4154 3.88554 102.201 3.08098 102.944 5.62066C104.379 10.531 111.638 9.38144 111.487 4.26767C111.408 1.62286 115.257 1.21819 115.73 3.8217C116.645 8.85531 123.983 8.47063 124.366 3.36908Z" stroke="#40464F" stroke-width="2"/>
</svg>
