<svg width="213" height="213" viewBox="0 0 213 213" fill="none" xmlns="http://www.w3.org/2000/svg">
<path d="M103.248 4.42498C104.018 0.943189 108.982 0.943292 109.752 4.42486L114.249 24.7565C115.338 29.6791 121.896 30.7182 124.453 26.3729L135.013 8.42589C136.822 5.35254 141.542 6.88649 141.199 10.4357L139.193 31.1612C138.708 36.1804 144.624 39.1945 148.399 35.8518L163.987 22.0465C166.657 19.6829 170.672 22.6005 169.249 25.87L160.937 44.962C158.924 49.5848 163.619 54.2798 168.242 52.2671L187.334 43.9551C190.604 42.5318 193.521 46.5473 191.157 49.2162L177.351 64.8056C174.009 68.5802 177.024 74.4965 182.042 74.0102L202.768 72.0052C206.317 71.6621 207.852 76.3827 204.778 78.1912L186.831 88.7502C182.486 91.307 183.525 97.866 188.448 98.9551L208.779 103.451C212.26 104.222 212.26 109.186 208.779 109.956L188.448 114.453C183.525 115.541 182.486 122.1 186.831 124.657L204.778 135.217C207.852 137.025 206.317 141.746 202.768 141.402L182.042 139.397C177.024 138.911 174.009 144.827 177.351 148.602L191.157 164.191C193.521 166.86 190.604 170.876 187.334 169.452L168.242 161.14C163.619 159.128 158.924 163.824 160.937 168.445L169.249 187.537C170.672 190.807 166.657 193.724 163.987 191.361L148.399 177.556C144.624 174.213 138.708 177.227 139.193 182.246L141.199 202.972C141.542 206.522 136.822 208.055 135.013 204.982L124.453 187.036C121.896 182.689 115.338 183.728 114.249 188.651L109.752 208.983C108.982 212.465 104.018 212.465 103.248 208.983L98.7509 188.651C97.6618 183.728 91.1039 182.689 88.5471 187.036L77.9869 204.982C76.1784 208.055 71.4579 206.522 71.8009 202.972L73.8071 182.246C74.2922 177.227 68.376 174.213 64.6013 177.556L49.0131 191.361C46.3431 193.724 42.3275 190.807 43.7508 187.537L52.0628 168.447C54.0756 163.824 49.3806 159.128 44.7578 161.14L25.6658 169.452C22.3963 170.876 19.4787 166.86 21.8434 164.191L35.6486 148.602C38.9914 144.827 35.9761 138.911 30.9581 139.397L10.2319 141.402C6.6827 141.746 5.14885 137.025 8.22209 135.217L26.1687 124.657C30.514 122.1 29.4759 115.541 24.5522 114.453L4.22117 109.956C0.739388 109.186 0.7395 104.222 4.22106 103.451L24.5522 98.9551C29.4748 97.866 30.514 91.307 26.1687 88.7502L8.22209 78.1912C5.14885 76.3827 6.6827 71.6621 10.2319 72.0052L30.9581 74.0102C35.9761 74.4965 38.9914 68.5802 35.6486 64.8056L21.8434 49.2162C19.4787 46.5473 22.3963 42.5318 25.6658 43.9551L44.7578 52.2671C49.3806 54.2798 54.0756 49.5848 52.0628 44.962L43.7508 25.87C42.3275 22.6005 46.3431 19.6829 49.0131 22.0465L64.6013 35.8518C68.376 39.1945 74.2922 36.1804 73.8071 31.1612L71.8009 10.4357C71.4579 6.88649 76.1784 5.35254 77.9869 8.42589L88.5471 26.3729C91.1039 30.7182 97.6618 29.6791 98.7509 24.7565L103.248 4.42498Z" stroke="#40464F" stroke-width="2"/>
</svg>
